<svg xmlns="http://www.w3.org/2000/svg" viewBox="0 0 42 37" width="42" height="37">
	<style>
		tspan { white-space:pre }
		.shp0 { fill: #ff4c31 } 
	</style>
	<g id="Group 37">
		<path id="Shape 16" class="shp0" d="M40.22 1L35.57 1C35.14 1 34.79 1.35 34.79 1.78L34.79 3.32L26.69 3.32C26.26 3.32 25.91 3.67 25.91 4.11C25.91 4.54 26.26 4.89 26.69 4.89L34.79 4.89L34.79 6.43C34.79 6.86 35.14 7.21 35.57 7.21L37.11 7.21L37.11 9.75C37.11 10.18 37.46 10.53 37.9 10.53C38.33 10.53 38.68 10.18 38.68 9.75L38.68 7.21L40.22 7.21C40.65 7.21 41 6.86 41 6.43L41 1.78C41 1.35 40.65 1 40.22 1ZM39.44 5.65L36.35 5.65L36.35 2.56L39.44 2.56L39.44 5.65ZM23.63 3.55C23.49 3.41 23.29 3.32 23.08 3.32C22.87 3.32 22.67 3.41 22.53 3.55C22.38 3.7 22.3 3.9 22.3 4.11C22.3 4.31 22.38 4.51 22.53 4.66C22.67 4.8 22.87 4.89 23.08 4.89C23.29 4.89 23.49 4.8 23.63 4.66C23.78 4.51 23.86 4.31 23.86 4.11C23.86 3.9 23.78 3.7 23.63 3.55ZM19.28 3.32L7.21 3.32L7.21 1.78C7.21 1.35 6.86 1 6.43 1L1.78 1C1.35 1 1 1.35 1 1.78L1 6.43C1 6.86 1.35 7.21 1.78 7.21L3.32 7.21L3.32 9.75C3.32 10.18 3.67 10.53 4.1 10.53C4.54 10.53 4.89 10.18 4.89 9.75L4.89 7.21L6.43 7.21C6.86 7.21 7.21 6.86 7.21 6.43L7.21 4.89L19.28 4.89L19.28 4.89C19.71 4.89 20.06 4.54 20.06 4.11C20.06 3.67 19.71 3.32 19.28 3.32ZM5.65 5.65L2.56 5.65L2.56 2.56L5.65 2.56L5.65 5.65ZM40.22 30.79L38.68 30.79L38.68 27.78C38.68 27.35 38.33 27 37.9 27C37.46 27 37.11 27.35 37.11 27.78L37.11 30.79L35.57 30.79C35.14 30.79 34.79 31.14 34.79 31.57L34.79 33.11L13.11 33.11C12.68 33.11 12.33 33.46 12.33 33.89C12.33 34.33 12.68 34.68 13.11 34.68L34.79 34.68L34.79 36.22C34.79 36.65 35.14 37 35.57 37L40.22 37C40.65 37 41 36.65 41 36.22L41 31.57C41 31.14 40.65 30.79 40.22 30.79ZM39.44 35.44L36.35 35.44L36.35 32.35L39.44 32.35L39.44 35.44ZM6.43 30.79L4.89 30.79L4.89 27.78C4.89 27.35 4.54 27 4.1 27C3.67 27 3.32 27.35 3.32 27.78L3.32 30.79L1.78 30.79C1.35 30.79 1 31.14 1 31.57L1 36.22C1 36.65 1.35 37 1.78 37L6.43 37C6.86 37 7.21 36.65 7.21 36.22L7.21 31.57C7.21 31.14 6.86 30.79 6.43 30.79ZM5.65 35.44L2.56 35.44L2.56 32.35L5.65 32.35L5.65 35.44ZM10.73 33.34C10.59 33.2 10.39 33.11 10.18 33.11C9.97 33.11 9.77 33.2 9.63 33.34C9.48 33.49 9.4 33.69 9.4 33.89C9.4 34.1 9.48 34.3 9.63 34.45C9.77 34.59 9.97 34.68 10.18 34.68C10.39 34.68 10.59 34.59 10.73 34.45C10.88 34.3 10.96 34.1 10.96 33.89C10.96 33.69 10.88 33.49 10.73 33.34ZM6.38 20.88L5.51 20.88C5.16 20.88 4.89 20.6 4.89 20.26L4.89 17.6C4.89 17.26 5.16 16.98 5.51 16.98L6.38 16.98C6.81 16.98 7.16 16.63 7.16 16.2C7.16 15.77 6.81 15.42 6.38 15.42L5.51 15.42C4.3 15.42 3.32 16.4 3.32 17.6L3.32 20.26C3.32 21.46 4.3 22.44 5.51 22.44L6.38 22.44C6.81 22.44 7.16 22.09 7.16 21.66C7.16 21.23 6.81 20.88 6.38 20.88ZM10.18 15.42C8.89 15.42 7.84 16.47 7.84 17.76L7.84 20.26C7.84 21.55 8.89 22.6 10.18 22.6C11.47 22.6 12.52 21.55 12.52 20.26L12.52 17.76C12.52 16.47 11.47 15.42 10.18 15.42ZM10.96 20.26C10.96 20.69 10.61 21.04 10.18 21.04C9.75 21.04 9.4 20.69 9.4 20.26L9.4 17.76C9.4 17.33 9.75 16.98 10.18 16.98C10.61 16.98 10.96 17.33 10.96 17.76L10.96 20.26ZM17.46 15.42C17.03 15.42 16.68 15.77 16.68 16.2L16.68 18.81L15.02 15.82C14.84 15.51 14.48 15.35 14.14 15.44C13.79 15.53 13.55 15.84 13.55 16.2L13.55 21.82C13.55 22.25 13.9 22.6 14.33 22.6C14.76 22.6 15.11 22.25 15.11 21.82L15.11 19.21L16.78 22.2C16.92 22.45 17.18 22.6 17.46 22.6C17.52 22.6 17.59 22.59 17.65 22.58C18 22.49 18.24 22.18 18.24 21.82L18.24 16.2C18.24 15.77 17.89 15.42 17.46 15.42ZM34.13 15.42C33.69 15.42 33.34 15.77 33.34 16.2L33.34 18.81L31.68 15.82C31.51 15.51 31.15 15.35 30.8 15.44C30.46 15.53 30.22 15.84 30.22 16.2L30.22 21.82C30.22 22.25 30.57 22.6 31 22.6C31.43 22.6 31.78 22.25 31.78 21.82L31.78 19.21L33.44 22.2C33.58 22.45 33.85 22.6 34.12 22.6C34.19 22.6 34.26 22.59 34.32 22.58C34.67 22.49 34.91 22.18 34.91 21.82L34.91 16.2C34.91 15.77 34.56 15.42 34.13 15.42ZM23.08 15.42L20.35 15.42C19.91 15.42 19.56 15.77 19.56 16.2C19.56 16.63 19.91 16.98 20.35 16.98L20.93 16.98L20.93 21.82C20.93 22.25 21.28 22.6 21.71 22.6C22.14 22.6 22.49 22.25 22.49 21.82L22.49 16.98L23.08 16.98C23.51 16.98 23.86 16.63 23.86 16.2C23.86 15.77 23.51 15.42 23.08 15.42ZM39.26 15.42L36.53 15.42C36.1 15.42 35.75 15.77 35.75 16.2C35.75 16.63 36.1 16.98 36.53 16.98L37.11 16.98L37.11 21.82C37.11 22.25 37.46 22.6 37.9 22.6C38.33 22.6 38.68 22.25 38.68 21.82L38.68 16.98L39.26 16.98C39.69 16.98 40.04 16.63 40.04 16.2C40.04 15.77 39.69 15.42 39.26 15.42ZM28.05 21.04L26.38 21.04L26.38 19.79L27.3 19.79C27.73 19.79 28.08 19.44 28.08 19.01C28.08 18.58 27.73 18.23 27.3 18.23L26.38 18.23L26.38 16.98L28.05 16.98C28.48 16.98 28.83 16.63 28.83 16.2C28.83 15.77 28.48 15.42 28.05 15.42L25.6 15.42C25.17 15.42 24.82 15.77 24.82 16.2L24.82 21.82C24.82 22.25 25.17 22.6 25.6 22.6L28.05 22.6C28.48 22.6 28.83 22.25 28.83 21.82C28.83 21.39 28.48 21.04 28.05 21.04Z" />
	</g>
</svg>