<svg xmlns="http://www.w3.org/2000/svg" viewBox="0 0 18 15" width="18" height="15">
	<style>
		tspan { white-space:pre }
		.shp0 { fill: #ff381a } 
	</style>
	<g id="Group 32">
		<g id="Group 30">
			<path id="Shape 10" class="shp0" d="M3.91,5.48c-0.6,-0.61 -1.62,-0.61 -2.22,0l-1.24,1.25c-0.6,0.61 -0.6,1.65 0,2.25l5.42,5.54c0.6,0.61 1.62,0.61 2.22,0l1.24,-1.26c0.6,-0.61 0.6,-1.64 0,-2.25zM4.68,10.93c-0.6,0.61 -0.6,1.64 0,2.25l1.24,1.26c0.6,0.61 1.62,0.61 2.22,0l9.4,-9.48c0.6,-0.61 0.6,-1.64 0,-2.25l-1.24,-1.26c-0.6,-0.61 -1.62,-0.61 -2.22,0z" />
		</g>
	</g>
</svg>