<svg xmlns="http://www.w3.org/2000/svg" xmlns:xlink="http://www.w3.org/1999/xlink" preserveAspectRatio="xMidYMid" width="115" height="32" viewBox="0 0 115 32">
  <defs>
    <style>
      .cls-1 {
        fill: #fff;
        fill-rule: evenodd;
      }
    </style>
  </defs>
  <path d="M114.975,10.120 C114.890,10.435 114.609,10.641 114.300,10.648 C114.201,11.057 114.051,11.447 113.847,11.817 C113.451,12.533 112.934,13.125 112.294,13.591 C112.296,13.593 112.299,13.596 112.302,13.598 C111.538,14.160 110.639,14.514 109.715,14.571 C109.586,14.555 109.456,14.545 109.323,14.545 C108.881,14.545 108.467,14.627 108.080,14.792 C107.694,14.958 107.355,15.187 107.063,15.478 C106.770,15.770 106.541,16.109 106.376,16.494 C106.318,16.629 106.274,16.769 106.236,16.911 C106.567,17.042 106.754,17.392 106.658,17.736 C106.602,17.937 106.451,18.101 106.298,18.181 C106.173,18.245 106.018,18.321 105.856,18.401 C105.853,18.404 105.851,18.407 105.848,18.410 C105.694,18.563 105.511,18.649 105.302,18.676 C105.159,18.734 104.997,18.751 104.836,18.709 C104.655,18.663 104.509,18.553 104.416,18.411 C104.357,18.330 104.318,18.283 103.844,17.546 C103.908,17.645 103.668,17.337 103.765,16.991 C103.843,16.711 104.085,16.516 104.363,16.477 C104.459,16.094 104.596,15.724 104.784,15.371 C105.169,14.645 105.692,14.052 106.352,13.591 C106.347,13.588 106.343,13.585 106.339,13.582 C107.154,12.988 108.138,12.616 109.156,12.621 C109.212,12.624 109.266,12.629 109.323,12.629 C109.764,12.629 110.176,12.546 110.560,12.381 C110.943,12.215 111.280,11.987 111.573,11.695 C111.865,11.403 112.095,11.064 112.264,10.679 C112.340,10.506 112.396,10.328 112.438,10.146 C112.182,9.984 112.047,9.671 112.131,9.361 C112.186,9.156 112.335,8.988 112.485,8.908 C112.593,8.851 112.724,8.783 112.862,8.713 C112.977,8.615 113.105,8.548 113.248,8.514 C113.286,8.494 113.326,8.474 113.363,8.454 C113.524,8.354 113.724,8.317 113.921,8.370 C114.100,8.417 114.243,8.529 114.335,8.673 C114.393,8.756 114.431,8.804 114.897,9.554 C114.834,9.454 115.070,9.767 114.975,10.120 ZM104.789,11.817 C104.584,11.439 104.440,11.039 104.344,10.621 C104.075,10.578 103.840,10.391 103.764,10.110 C103.670,9.757 103.905,9.443 103.842,9.543 C104.308,8.792 104.346,8.744 104.403,8.661 C104.495,8.516 104.639,8.405 104.816,8.357 C105.014,8.305 105.214,8.341 105.375,8.442 C105.411,8.462 105.451,8.482 105.489,8.502 C105.632,8.535 105.760,8.603 105.874,8.701 C106.012,8.771 106.144,8.839 106.251,8.896 C106.401,8.977 106.550,9.144 106.605,9.349 C106.688,9.660 106.554,9.973 106.299,10.135 C106.265,10.122 106.229,10.112 106.193,10.100 C106.235,10.302 106.295,10.496 106.376,10.684 C106.541,11.066 106.770,11.403 107.063,11.695 C107.143,11.775 107.227,11.849 107.315,11.920 C106.629,12.113 106.015,12.414 105.482,12.809 C105.217,12.510 104.986,12.180 104.789,11.817 ZM102.284,18.688 L98.450,18.688 C98.183,18.688 97.957,18.595 97.772,18.410 C97.586,18.226 97.494,18.000 97.494,17.734 C97.494,17.469 97.586,17.242 97.772,17.054 C97.957,16.866 98.183,16.772 98.450,16.772 L99.406,16.772 L99.406,10.402 L98.450,10.402 C98.183,10.402 97.957,10.309 97.772,10.125 C97.586,9.940 97.494,9.715 97.494,9.449 C97.494,9.183 97.586,8.956 97.772,8.768 C97.957,8.580 98.183,8.486 98.450,8.486 L100.372,8.486 C100.638,8.486 100.864,8.580 101.050,8.768 C101.235,8.956 101.328,9.183 101.328,9.449 L101.328,16.772 L102.284,16.772 C102.550,16.772 102.778,16.866 102.967,17.054 C103.155,17.242 103.250,17.469 103.250,17.734 C103.250,18.000 103.155,18.226 102.967,18.410 C102.778,18.595 102.550,18.688 102.284,18.688 ZM100.206,7.853 C99.900,7.853 99.638,7.743 99.420,7.523 C99.202,7.303 99.093,7.040 99.093,6.735 C99.093,6.431 99.202,6.170 99.420,5.952 C99.638,5.735 99.900,5.626 100.206,5.626 C100.511,5.626 100.775,5.735 100.996,5.952 C101.217,6.170 101.328,6.431 101.328,6.735 C101.328,7.040 101.217,7.303 100.996,7.523 C100.775,7.743 100.511,7.853 100.206,7.853 ZM95.894,18.688 L92.060,18.688 C91.793,18.688 91.567,18.595 91.381,18.410 C91.196,18.226 91.103,18.000 91.103,17.734 C91.103,17.469 91.196,17.242 91.381,17.054 C91.567,16.866 91.793,16.772 92.060,16.772 L93.016,16.772 L93.016,6.579 L92.060,6.579 C91.793,6.579 91.567,6.486 91.381,6.298 C91.196,6.109 91.103,5.886 91.103,5.626 C91.103,5.361 91.196,5.134 91.381,4.946 C91.567,4.758 91.793,4.664 92.060,4.664 L93.981,4.664 C94.248,4.664 94.474,4.758 94.659,4.946 C94.845,5.134 94.938,5.361 94.938,5.626 L94.938,16.772 L95.894,16.772 C96.160,16.772 96.388,16.866 96.577,17.054 C96.765,17.242 96.859,17.469 96.859,17.734 C96.859,18.000 96.765,18.226 96.577,18.410 C96.388,18.595 96.160,18.688 95.894,18.688 ZM84.050,15.838 C84.343,16.130 84.682,16.358 85.069,16.524 C85.456,16.689 85.868,16.772 86.304,16.772 C86.746,16.772 87.160,16.689 87.547,16.524 C87.934,16.358 88.274,16.130 88.567,15.838 C88.755,15.650 88.980,15.556 89.240,15.556 C89.507,15.556 89.734,15.650 89.923,15.838 C90.112,16.026 90.206,16.253 90.206,16.519 C90.206,16.785 90.112,17.008 89.923,17.190 C89.416,17.696 88.850,18.072 88.225,18.318 C87.601,18.564 86.960,18.688 86.304,18.688 C85.595,18.688 84.931,18.555 84.313,18.289 C83.695,18.023 83.154,17.658 82.689,17.195 C82.224,16.731 81.858,16.190 81.591,15.571 C81.325,14.951 81.192,14.292 81.192,13.591 C81.192,12.885 81.325,12.223 81.591,11.607 C81.858,10.992 82.224,10.450 82.689,9.983 C83.154,9.517 83.697,9.150 84.318,8.884 C84.939,8.619 85.601,8.486 86.304,8.486 C86.954,8.486 87.593,8.609 88.221,8.855 C88.848,9.102 89.416,9.478 89.923,9.983 C90.112,10.171 90.206,10.398 90.206,10.664 C90.206,10.930 90.112,11.155 89.923,11.340 C89.734,11.525 89.507,11.617 89.240,11.617 C88.973,11.617 88.749,11.523 88.567,11.335 C88.274,11.044 87.934,10.815 87.547,10.650 C87.160,10.484 86.746,10.402 86.304,10.402 C85.861,10.402 85.448,10.484 85.065,10.650 C84.681,10.815 84.343,11.044 84.050,11.335 C83.757,11.627 83.528,11.966 83.362,12.352 C83.196,12.737 83.113,13.150 83.113,13.591 C83.113,14.032 83.196,14.444 83.362,14.827 C83.528,15.209 83.757,15.546 84.050,15.838 ZM79.435,10.402 L79.123,10.402 C78.681,10.402 78.266,10.484 77.879,10.650 C77.492,10.815 77.153,11.044 76.860,11.335 C76.567,11.627 76.338,11.966 76.172,12.352 C76.006,12.737 75.923,13.150 75.923,13.591 L75.923,17.734 C75.923,18.000 75.831,18.226 75.645,18.410 C75.460,18.595 75.234,18.688 74.967,18.688 C74.700,18.688 74.473,18.595 74.284,18.410 C74.096,18.226 74.001,18.000 74.001,17.734 L74.001,9.449 C74.001,9.183 74.096,8.956 74.284,8.768 C74.473,8.580 74.700,8.486 74.967,8.486 C75.234,8.486 75.460,8.580 75.645,8.768 C75.831,8.956 75.923,9.183 75.923,9.449 L75.923,9.623 C76.366,9.280 76.855,9.005 77.392,8.797 C77.928,8.589 78.505,8.486 79.123,8.486 L79.435,8.486 C79.702,8.486 79.930,8.580 80.118,8.768 C80.307,8.956 80.401,9.183 80.401,9.449 C80.401,9.715 80.307,9.940 80.118,10.125 C79.930,10.309 79.702,10.402 79.435,10.402 ZM71.611,14.545 L64.402,14.545 C64.616,15.193 65.000,15.726 65.553,16.144 C66.105,16.563 66.740,16.772 67.455,16.772 L69.699,16.772 C69.966,16.772 70.192,16.866 70.377,17.054 C70.562,17.242 70.655,17.469 70.655,17.734 C70.655,18.000 70.562,18.226 70.377,18.410 C70.192,18.595 69.966,18.688 69.699,18.688 L67.455,18.688 C66.746,18.688 66.083,18.555 65.465,18.289 C64.847,18.023 64.306,17.658 63.841,17.195 C63.376,16.731 63.010,16.190 62.743,15.571 C62.476,14.951 62.343,14.292 62.343,13.591 C62.343,12.885 62.476,12.223 62.743,11.607 C63.010,10.992 63.376,10.450 63.841,9.983 C64.306,9.517 64.849,9.150 65.470,8.884 C66.091,8.619 66.753,8.486 67.455,8.486 C68.164,8.486 68.827,8.619 69.445,8.884 C70.063,9.150 70.606,9.517 71.075,9.983 C71.543,10.450 71.910,10.992 72.177,11.607 C72.444,12.223 72.577,12.885 72.577,13.591 C72.577,13.858 72.483,14.083 72.294,14.268 C72.105,14.452 71.878,14.545 71.611,14.545 ZM70.050,11.744 C69.855,11.471 69.624,11.237 69.358,11.039 C69.091,10.841 68.797,10.685 68.475,10.572 C68.153,10.458 67.813,10.402 67.455,10.402 C66.733,10.402 66.097,10.614 65.548,11.039 C64.998,11.463 64.616,11.993 64.402,12.629 L70.499,12.629 C70.395,12.311 70.245,12.016 70.050,11.744 ZM58.914,16.217 C59.288,16.587 59.742,16.772 60.275,16.772 C60.542,16.772 60.768,16.866 60.953,17.054 C61.138,17.242 61.231,17.469 61.231,17.734 C61.231,18.000 61.138,18.226 60.953,18.410 C60.768,18.595 60.542,18.688 60.275,18.688 C59.742,18.688 59.241,18.589 58.772,18.391 C58.304,18.193 57.898,17.921 57.553,17.574 C57.208,17.227 56.935,16.822 56.733,16.358 C56.532,15.895 56.431,15.397 56.431,14.865 L56.431,10.402 L55.475,10.402 C55.208,10.402 54.982,10.309 54.797,10.125 C54.612,9.940 54.519,9.715 54.519,9.449 C54.519,9.183 54.612,8.956 54.797,8.768 C54.982,8.580 55.208,8.486 55.475,8.486 L56.431,8.486 L56.431,6.900 C56.431,6.635 56.525,6.408 56.714,6.220 C56.903,6.032 57.130,5.938 57.397,5.938 C57.663,5.938 57.890,6.032 58.075,6.220 C58.260,6.408 58.353,6.635 58.353,6.900 L58.353,8.486 L60.275,8.486 C60.542,8.486 60.768,8.580 60.953,8.768 C61.138,8.956 61.231,9.183 61.231,9.449 C61.231,9.715 61.138,9.940 60.953,10.125 C60.768,10.309 60.542,10.402 60.275,10.402 L58.353,10.402 L58.353,14.865 C58.353,15.397 58.540,15.848 58.914,16.217 ZM55.302,22.156 C55.506,22.359 55.667,22.598 55.784,22.871 C55.902,23.144 55.961,23.434 55.961,23.740 L55.961,26.142 C55.961,26.276 55.913,26.389 55.819,26.481 C55.724,26.574 55.610,26.621 55.476,26.621 C55.342,26.621 55.229,26.574 55.135,26.481 C55.042,26.389 54.996,26.276 54.996,26.142 L54.996,23.740 C54.996,23.561 54.962,23.395 54.895,23.242 C54.828,23.089 54.736,22.954 54.619,22.837 C54.501,22.719 54.366,22.628 54.212,22.561 C54.059,22.494 53.892,22.461 53.713,22.461 C53.533,22.461 53.366,22.494 53.210,22.561 C53.055,22.628 52.920,22.719 52.804,22.837 C52.688,22.954 52.597,23.089 52.530,23.242 C52.463,23.395 52.429,23.561 52.429,23.740 L52.429,26.142 C52.429,26.276 52.382,26.389 52.287,26.481 C52.192,26.574 52.080,26.621 51.949,26.621 C51.815,26.621 51.701,26.574 51.606,26.481 C51.512,26.389 51.464,26.276 51.464,26.142 L51.464,23.740 C51.464,23.561 51.431,23.395 51.364,23.242 C51.297,23.089 51.206,22.954 51.090,22.837 C50.974,22.719 50.838,22.628 50.683,22.561 C50.528,22.494 50.360,22.461 50.181,22.461 C50.001,22.461 49.835,22.494 49.681,22.561 C49.528,22.628 49.392,22.719 49.275,22.837 C49.157,22.954 49.065,23.089 48.998,23.242 C48.931,23.395 48.898,23.561 48.898,23.740 L48.898,26.142 C48.898,26.276 48.851,26.389 48.758,26.481 C48.665,26.574 48.551,26.621 48.418,26.621 C48.284,26.621 48.169,26.574 48.075,26.481 C47.980,26.389 47.933,26.276 47.933,26.142 L47.933,21.982 C47.933,21.849 47.980,21.735 48.075,21.640 C48.169,21.546 48.284,21.499 48.418,21.499 C48.532,21.499 48.634,21.540 48.724,21.621 C48.814,21.702 48.868,21.798 48.888,21.909 C49.067,21.776 49.268,21.674 49.488,21.604 C49.708,21.534 49.939,21.499 50.181,21.499 C50.543,21.499 50.876,21.576 51.180,21.731 C51.484,21.885 51.740,22.093 51.949,22.353 C52.155,22.093 52.410,21.885 52.713,21.731 C53.017,21.576 53.350,21.499 53.713,21.499 C54.019,21.499 54.310,21.558 54.584,21.674 C54.859,21.792 55.098,21.952 55.302,22.156 ZM53.607,8.768 C53.792,8.956 53.885,9.183 53.885,9.449 C53.885,9.715 53.792,9.940 53.607,10.125 C53.421,10.309 53.195,10.402 52.929,10.402 L51.007,10.402 L51.007,17.734 C51.007,18.000 50.914,18.226 50.729,18.410 C50.543,18.595 50.317,18.688 50.051,18.688 C49.784,18.688 49.556,18.595 49.368,18.410 C49.179,18.226 49.085,18.000 49.085,17.734 L49.085,10.402 L48.129,10.402 C47.862,10.402 47.636,10.309 47.451,10.125 C47.265,9.940 47.173,9.715 47.173,9.449 C47.173,9.183 47.265,8.956 47.451,8.768 C47.636,8.580 47.862,8.486 48.129,8.486 L49.085,8.486 C49.085,7.954 49.186,7.457 49.387,6.993 C49.589,6.529 49.862,6.126 50.207,5.782 C50.552,5.438 50.958,5.166 51.426,4.965 C51.895,4.764 52.395,4.664 52.929,4.664 C53.195,4.664 53.421,4.758 53.607,4.946 C53.792,5.134 53.885,5.361 53.885,5.626 C53.885,5.892 53.792,6.118 53.607,6.302 C53.421,6.487 53.195,6.579 52.929,6.579 C52.395,6.579 51.942,6.766 51.568,7.139 C51.194,7.512 51.007,7.961 51.007,8.486 L52.929,8.486 C53.195,8.486 53.421,8.580 53.607,8.768 ZM47.017,25.058 C46.883,25.368 46.698,25.639 46.463,25.871 C46.228,26.104 45.955,26.287 45.645,26.421 C45.335,26.554 45.002,26.621 44.646,26.621 C44.290,26.621 43.957,26.554 43.647,26.421 C43.337,26.287 43.065,26.104 42.831,25.871 C42.598,25.639 42.414,25.368 42.280,25.058 C42.146,24.749 42.079,24.417 42.079,24.062 C42.079,23.708 42.146,23.375 42.280,23.066 C42.414,22.757 42.598,22.485 42.831,22.251 C43.065,22.016 43.337,21.832 43.649,21.699 C43.961,21.565 44.293,21.499 44.646,21.499 C45.002,21.499 45.335,21.565 45.645,21.699 C45.955,21.832 46.228,22.016 46.463,22.251 C46.698,22.485 46.883,22.757 47.017,23.066 C47.151,23.375 47.218,23.708 47.218,24.062 C47.218,24.417 47.151,24.749 47.017,25.058 ZM46.128,23.440 C46.044,23.246 45.929,23.076 45.782,22.929 C45.635,22.783 45.465,22.668 45.271,22.585 C45.076,22.502 44.868,22.461 44.646,22.461 C44.424,22.461 44.217,22.502 44.024,22.585 C43.831,22.668 43.662,22.783 43.515,22.929 C43.368,23.076 43.252,23.246 43.169,23.440 C43.086,23.633 43.044,23.841 43.044,24.062 C43.044,24.283 43.086,24.490 43.169,24.682 C43.252,24.874 43.368,25.044 43.515,25.190 C43.662,25.337 43.832,25.451 44.026,25.534 C44.221,25.617 44.427,25.659 44.646,25.659 C44.868,25.659 45.076,25.617 45.271,25.534 C45.465,25.451 45.635,25.337 45.782,25.190 C45.929,25.044 46.044,24.874 46.128,24.680 C46.211,24.486 46.253,24.280 46.253,24.062 C46.253,23.841 46.211,23.633 46.128,23.440 ZM45.895,17.734 C45.895,18.000 45.800,18.226 45.612,18.410 C45.423,18.595 45.196,18.688 44.929,18.688 C44.662,18.688 44.436,18.595 44.251,18.410 C44.065,18.226 43.973,18.000 43.973,17.734 L43.973,17.630 C43.621,17.911 43.235,18.147 42.810,18.332 C42.196,18.600 41.536,18.733 40.832,18.733 C40.231,18.733 39.660,18.632 39.120,18.430 C39.081,18.415 39.045,18.396 39.008,18.379 C38.932,18.351 38.857,18.321 38.783,18.289 C38.165,18.023 37.623,17.658 37.158,17.195 C36.693,16.731 36.327,16.191 36.061,15.576 C35.794,14.960 35.661,14.298 35.661,13.591 C35.661,12.885 35.794,12.223 36.061,11.607 C36.327,10.992 36.693,10.450 37.158,9.983 C37.623,9.517 38.166,9.150 38.788,8.884 C39.130,8.738 39.486,8.633 39.854,8.567 C40.173,8.501 40.498,8.465 40.832,8.465 C41.530,8.465 42.188,8.599 42.805,8.866 C43.422,9.134 43.962,9.503 44.424,9.972 C44.886,10.442 45.250,10.987 45.515,11.607 C45.780,12.227 45.912,12.893 45.912,13.604 C45.912,13.748 45.906,13.890 45.895,14.030 C45.895,15.788 45.895,17.734 45.895,17.734 ZM43.724,12.352 C43.558,11.966 43.329,11.627 43.036,11.335 C42.744,11.044 42.404,10.815 42.017,10.650 C41.630,10.484 41.215,10.402 40.773,10.402 C40.665,10.402 40.559,10.407 40.455,10.417 C40.155,10.451 39.868,10.525 39.595,10.643 C39.211,10.809 38.873,11.039 38.582,11.333 C38.291,11.627 38.063,11.968 37.899,12.356 C37.734,12.744 37.651,13.160 37.651,13.604 C37.651,14.041 37.734,14.454 37.899,14.842 C38.063,15.231 38.291,15.572 38.582,15.865 C38.795,16.080 39.033,16.260 39.296,16.406 C39.375,16.448 39.455,16.488 39.539,16.524 C39.926,16.689 40.337,16.772 40.773,16.772 C41.215,16.772 41.630,16.689 42.017,16.524 C42.404,16.358 42.744,16.130 43.036,15.838 C43.329,15.546 43.558,15.208 43.724,14.822 C43.890,14.436 43.973,14.026 43.973,13.591 C43.973,13.150 43.890,12.737 43.724,12.352 ZM35.984,25.503 C36.136,25.503 36.268,25.557 36.379,25.666 C36.489,25.775 36.544,25.906 36.544,26.059 C36.544,26.212 36.489,26.344 36.379,26.455 C36.268,26.565 36.136,26.621 35.984,26.621 C35.831,26.621 35.699,26.565 35.589,26.455 C35.478,26.344 35.423,26.212 35.423,26.059 C35.423,25.906 35.478,25.775 35.589,25.666 C35.699,25.557 35.831,25.503 35.984,25.503 ZM29.449,32.000 L23.827,32.000 C23.383,32.000 23.023,31.642 23.023,31.200 C23.023,30.758 23.383,30.400 23.827,30.400 L29.181,30.400 C29.920,30.400 30.519,29.803 30.519,29.066 L30.519,23.733 C30.519,23.291 30.879,22.933 31.322,22.933 C31.766,22.933 32.126,23.291 32.126,23.733 L32.126,29.333 C32.126,30.806 30.927,32.000 29.449,32.000 ZM31.322,9.066 C30.879,9.066 30.519,8.708 30.519,8.266 L30.519,2.933 C30.519,2.197 29.920,1.600 29.181,1.600 L23.827,1.600 C23.383,1.600 23.023,1.242 23.023,0.800 C23.023,0.358 23.383,-0.000 23.827,-0.000 L29.449,-0.000 C30.927,-0.000 32.126,1.194 32.126,2.667 L32.126,8.266 C32.126,8.708 31.766,9.066 31.322,9.066 ZM24.109,15.885 C24.111,15.912 24.118,15.938 24.118,15.965 L24.118,22.251 C24.118,23.068 23.454,23.731 22.636,23.731 C21.818,23.731 21.155,23.068 21.155,22.251 L21.155,21.933 C19.773,23.056 18.010,23.731 16.089,23.731 C11.654,23.731 8.059,20.147 8.059,15.727 C8.059,11.306 11.654,7.723 16.089,7.723 C20.523,7.723 24.118,11.306 24.118,15.727 C24.118,15.780 24.111,15.832 24.109,15.885 ZM16.089,10.682 C13.293,10.682 11.028,12.940 11.028,15.727 C11.028,18.513 13.293,20.772 16.089,20.772 C18.884,20.772 21.149,18.513 21.149,15.727 C21.149,12.940 18.884,10.682 16.089,10.682 ZM8.299,1.600 L2.945,1.600 C2.206,1.600 1.606,2.197 1.606,2.933 L1.606,8.266 C1.606,8.708 1.247,9.066 0.803,9.066 C0.360,9.066 -0.000,8.708 -0.000,8.266 L-0.000,2.667 C-0.000,1.194 1.199,-0.000 2.677,-0.000 L8.299,-0.000 C8.743,-0.000 9.102,0.358 9.102,0.800 C9.102,1.242 8.743,1.600 8.299,1.600 ZM0.803,22.933 C1.247,22.933 1.606,23.291 1.606,23.733 L1.606,29.066 C1.606,29.803 2.206,30.400 2.945,30.400 L8.299,30.400 C8.743,30.400 9.102,30.758 9.102,31.200 C9.102,31.642 8.743,32.000 8.299,32.000 L2.677,32.000 C1.199,32.000 -0.000,30.806 -0.000,29.333 L-0.000,23.733 C-0.000,23.291 0.360,22.933 0.803,22.933 ZM37.776,22.251 C38.010,22.016 38.282,21.832 38.594,21.699 C38.906,21.565 39.238,21.499 39.591,21.499 C39.918,21.499 40.238,21.561 40.554,21.684 C40.869,21.808 41.154,21.997 41.408,22.251 C41.503,22.345 41.550,22.459 41.550,22.593 C41.550,22.726 41.503,22.839 41.408,22.932 C41.314,23.025 41.199,23.071 41.065,23.071 C40.932,23.071 40.819,23.024 40.727,22.929 C40.581,22.783 40.410,22.668 40.216,22.585 C40.021,22.502 39.813,22.461 39.591,22.461 C39.369,22.461 39.162,22.502 38.969,22.585 C38.776,22.668 38.607,22.783 38.460,22.929 C38.313,23.076 38.198,23.246 38.114,23.440 C38.031,23.633 37.989,23.841 37.989,24.062 C37.989,24.283 38.031,24.490 38.114,24.682 C38.198,24.874 38.313,25.044 38.460,25.190 C38.607,25.337 38.777,25.451 38.971,25.534 C39.166,25.617 39.372,25.659 39.591,25.659 C39.813,25.659 40.021,25.617 40.216,25.534 C40.410,25.451 40.581,25.337 40.727,25.190 C40.822,25.096 40.935,25.049 41.065,25.049 C41.199,25.049 41.314,25.096 41.408,25.190 C41.503,25.285 41.550,25.399 41.550,25.532 C41.550,25.666 41.503,25.778 41.408,25.869 C41.154,26.123 40.870,26.312 40.556,26.435 C40.243,26.559 39.921,26.621 39.591,26.621 C39.235,26.621 38.902,26.554 38.592,26.421 C38.282,26.287 38.010,26.104 37.776,25.871 C37.543,25.639 37.359,25.367 37.225,25.056 C37.091,24.745 37.024,24.414 37.024,24.062 C37.024,23.708 37.091,23.375 37.225,23.066 C37.359,22.757 37.543,22.485 37.776,22.251 ZM113.847,15.376 C114.064,15.774 114.208,16.194 114.306,16.630 C114.327,16.579 114.348,16.528 114.365,16.474 C114.642,16.513 114.884,16.708 114.962,16.989 C115.058,17.335 114.819,17.644 114.883,17.545 C114.409,18.282 114.370,18.330 114.312,18.411 C114.218,18.553 114.072,18.663 113.891,18.709 C113.747,18.746 113.604,18.731 113.473,18.687 C113.207,18.685 112.982,18.593 112.797,18.410 C112.775,18.388 112.767,18.361 112.748,18.338 C112.636,18.283 112.521,18.226 112.432,18.180 C112.279,18.101 112.128,17.936 112.072,17.735 C111.985,17.422 112.137,17.113 112.412,16.959 C112.371,16.801 112.330,16.644 112.264,16.494 C112.095,16.109 111.865,15.770 111.573,15.478 C111.496,15.402 111.415,15.330 111.332,15.262 C112.008,15.064 112.615,14.761 113.141,14.365 C113.408,14.668 113.644,15.005 113.847,15.376 Z" class="cls-1"/>
</svg>
