<svg xmlns="http://www.w3.org/2000/svg" viewBox="0 0 40 34" width="40" height="34">
	<style>
		tspan { white-space:pre }
		.shp0 { fill: #ff4c31 } 
	</style>
	<g id="Group 37">
		<path id="Shape 15" class="shp0" d="M36.58 0L3.42 0C2.09 0 1 1.06 1 2.36L1 31.64C1 32.94 2.09 34 3.42 34L36.58 34C37.91 34 39 32.94 39 31.64L39 2.36C39 1.06 37.91 0 36.58 0ZM37.39 31.64C37.39 32.07 37.02 32.43 36.58 32.43L3.42 32.43C2.98 32.43 2.61 32.07 2.61 31.64L2.61 2.36C2.61 1.93 2.98 1.57 3.42 1.57L36.58 1.57C37.02 1.57 37.39 1.93 37.39 2.36L37.39 31.64ZM32.33 11.19L23.67 11.19C23.22 11.19 22.86 11.54 22.86 11.97C22.86 12.41 23.22 12.76 23.67 12.76L32.33 12.76C32.77 12.76 33.14 12.41 33.14 11.97C33.14 11.54 32.77 11.19 32.33 11.19ZM32.33 16.57L23.67 16.57C23.22 16.57 22.86 16.92 22.86 17.36C22.86 17.79 23.22 18.14 23.67 18.14L32.33 18.14C32.77 18.14 33.14 17.79 33.14 17.36C33.14 16.92 32.77 16.57 32.33 16.57ZM32.33 5.78L23.67 5.78C23.22 5.78 22.86 6.13 22.86 6.57C22.86 7 23.22 7.35 23.67 7.35L32.33 7.35C32.77 7.35 33.14 7 33.14 6.57C33.14 6.13 32.77 5.78 32.33 5.78ZM32.33 21.96L23.67 21.96C23.22 21.96 22.86 22.31 22.86 22.74C22.86 23.18 23.22 23.53 23.67 23.53L32.33 23.53C32.77 23.53 33.14 23.18 33.14 22.74C33.14 22.31 32.77 21.96 32.33 21.96ZM32.33 27.33L23.67 27.33C23.22 27.33 22.86 27.68 22.86 28.11C22.86 28.55 23.22 28.9 23.67 28.9L32.33 28.9C32.77 28.9 33.14 28.55 33.14 28.11C33.14 27.68 32.77 27.33 32.33 27.33ZM15.9 18.83C15.88 18.83 14.41 18.89 14.01 17.34C14.55 16.92 15 16.35 15.32 15.66C15.35 15.66 15.37 15.67 15.39 15.67C15.61 15.67 15.83 15.57 15.97 15.39C16.64 14.55 17 13.45 16.96 12.29C16.88 9.91 15.18 8.02 13.08 8C13.02 8 12.97 8 12.93 8C12.92 8 12.92 8 12.92 8C12.41 7.79 11.88 7.69 11.32 7.7C10.14 7.74 9.06 8.31 8.27 9.31C7.51 10.27 7.12 11.52 7.17 12.82C7.17 13.04 7.19 13.25 7.22 13.44C7.3 14 7.45 14.53 7.69 15.02C7.8 15.26 8.04 15.42 8.3 15.44C8.38 15.44 8.45 15.43 8.52 15.42C8.85 16.21 9.34 16.87 9.94 17.33C9.55 18.89 8.07 18.83 8.05 18.83C6.46 18.88 5.19 20.16 5.19 21.72L5.19 24.58C5.19 24.97 5.51 25.29 5.91 25.29L18.04 25.29C18.44 25.29 18.76 24.97 18.76 24.58L18.76 21.72C18.76 20.16 17.49 18.88 15.9 18.83ZM8.67 13.31C8.66 13.28 8.66 13.26 8.66 13.24C8.64 13.1 8.62 12.94 8.62 12.78C8.58 11.8 8.87 10.87 9.42 10.17C9.94 9.52 10.63 9.14 11.37 9.12C11.39 9.12 11.97 9.07 12.46 9.35C12.57 9.41 12.69 9.43 12.81 9.43C12.82 9.43 13.04 9.42 13.05 9.42C14.35 9.43 15.45 10.74 15.51 12.34C15.51 12.52 15.51 12.7 15.49 12.88C15 12.08 14.29 11.45 13.44 11.11C13.26 11.03 13.05 11.03 12.87 11.11C12.69 11.19 12.55 11.33 12.48 11.51C12.42 11.66 12.35 11.81 12.28 11.94C12.09 12.27 11.7 12.47 11.26 12.46C11.17 12.45 11.08 12.45 11 12.46C10.57 12.47 10.16 12.55 9.76 12.69C9.37 12.84 9 13.04 8.67 13.31ZM9.68 14.33C9.86 14.2 10.07 14.1 10.27 14.02C10.65 13.86 11.15 13.87 11.21 13.87C12.14 13.9 13 13.48 13.47 12.75C13.84 13.03 14.15 13.4 14.36 13.84C14.14 15.43 13.12 16.64 11.97 16.64C10.95 16.64 10.02 15.69 9.68 14.33ZM11.27 17.97C11.5 18.02 11.74 18.05 11.97 18.05C12.21 18.05 12.45 18.02 12.67 17.97C12.91 18.7 13.4 19.32 14.04 19.73C13.73 20.56 12.92 21.14 11.97 21.14C11.03 21.14 10.21 20.56 9.9 19.73C10.55 19.32 11.04 18.7 11.27 17.97ZM6.64 23.87L6.64 21.72C6.64 20.91 7.32 20.25 8.15 20.25C8.16 20.25 8.43 20.23 8.54 20.22C9.06 21.59 10.42 22.55 11.97 22.55C13.53 22.55 14.89 21.59 15.41 20.22C15.52 20.23 15.78 20.25 15.8 20.25C16.63 20.25 17.31 20.91 17.31 21.72L17.31 23.87L6.64 23.87Z" />
	</g>
</svg>