<svg xmlns="http://www.w3.org/2000/svg" viewBox="0 0 41 39" width="41" height="39">
	<style>
		tspan { white-space:pre }
		.shp0 { fill: #ff4c31 } 
	</style>
	<g id="Group 37">
		<path id="Shape 12" class="shp0" d="M14.75 5.75C14.32 5.75 13.97 6.1 13.97 6.54C13.97 6.98 14.32 7.33 14.75 7.33C15.18 7.33 15.53 6.98 15.53 6.54C15.53 6.1 15.18 5.75 14.75 5.75ZM14.75 10.5C14.32 10.5 13.97 10.85 13.97 11.29C13.97 11.73 14.32 12.08 14.75 12.08C15.18 12.08 15.53 11.73 15.53 11.29C15.53 10.85 15.18 10.5 14.75 10.5ZM40.22 27.92L34.75 27.92L34.75 22.37C34.75 21.94 34.4 21.58 33.97 21.58L21.78 21.58L21.78 16.83L30.37 16.83C30.81 16.83 31.16 16.48 31.16 16.04L31.16 1.79C31.16 1.35 30.81 1 30.37 1L11.62 1C11.19 1 10.84 1.35 10.84 1.79L10.84 16.04C10.84 16.48 11.19 16.83 11.62 16.83L20.22 16.83L20.22 21.58L8.03 21.58C7.6 21.58 7.25 21.94 7.25 22.37L7.25 27.92L1.78 27.92C1.35 27.92 1 28.27 1 28.71L1 38.21C1 38.65 1.35 39 1.78 39L11.16 39C11.59 39 11.94 38.65 11.94 38.21L11.94 28.71C11.94 28.27 11.59 27.92 11.16 27.92L8.81 27.92L8.81 23.17L20.22 23.17L20.22 27.92L16.31 27.92C15.88 27.92 15.53 28.27 15.53 28.71L15.53 38.21C15.53 38.65 15.88 39 16.31 39L25.69 39C26.12 39 26.47 38.65 26.47 38.21L26.47 28.71C26.47 28.27 26.12 27.92 25.69 27.92L21.78 27.92L21.78 23.17L33.19 23.17L33.19 27.92L30.84 27.92C30.41 27.92 30.06 28.27 30.06 28.71L30.06 38.21C30.06 38.65 30.41 39 30.84 39L40.22 39C40.65 39 41 38.65 41 38.21L41 28.71C41 28.27 40.65 27.92 40.22 27.92ZM12.41 2.58L29.59 2.58L29.59 15.25L12.41 15.25L12.41 2.58ZM10.37 37.42L2.56 37.42L2.56 29.5L10.37 29.5L10.37 37.42ZM24.91 37.42L17.09 37.42L17.09 29.5L24.91 29.5L24.91 37.42ZM39.44 37.42L31.62 37.42L31.62 29.5L39.44 29.5L39.44 37.42ZM17.87 7.33L27.25 7.33C27.68 7.33 28.03 6.98 28.03 6.54C28.03 6.1 27.68 5.75 27.25 5.75L17.87 5.75C17.44 5.75 17.09 6.1 17.09 6.54C17.09 6.98 17.44 7.33 17.87 7.33ZM28.03 11.29C28.03 10.85 27.68 10.5 27.25 10.5L17.87 10.5C17.44 10.5 17.09 10.85 17.09 11.29C17.09 11.73 17.44 12.08 17.87 12.08L27.25 12.08C27.68 12.08 28.03 11.73 28.03 11.29Z" />
	</g>
</svg>