<svg xmlns="http://www.w3.org/2000/svg" viewBox="0 0 40 39" width="40" height="39">
	<style>
		tspan { white-space:pre }
		.shp0 { fill: #ff4c31 } 
	</style>
	<g id="Group 37">
		<path id="Shape 13" class="shp0" d="M10.97 29.39C11.33 28.86 11.54 28.22 11.54 27.54L11.54 25.6C11.54 25.56 11.54 25.52 11.53 25.49C11.54 25.47 11.54 25.46 11.54 25.44C11.51 23.7 10.06 22.28 8.31 22.28L8.1 22.28C6.32 22.28 4.88 23.72 4.88 25.49L4.88 25.58C4.88 25.59 4.88 25.59 4.88 25.6L4.88 27.54C4.88 28.22 5.08 28.86 5.44 29.38C4.13 29.49 2.95 30.19 2.23 31.3C1.43 32.54 1 33.99 1 35.48L1 38.26C1 38.67 1.33 39 1.74 39L14.61 39C15.02 39 15.35 38.67 15.35 38.26L15.35 35.48C15.35 33.99 14.92 32.54 14.12 31.3C13.41 30.2 12.25 29.51 10.97 29.39ZM8.21 23.76C8.97 23.76 9.63 24.23 9.91 24.89C9.19 24.85 8.51 25.11 7.79 25.38C7.66 25.43 7.52 25.49 7.38 25.54C7.35 25.55 7.09 25.63 6.37 25.49C6.43 24.53 7.23 23.76 8.21 23.76ZM6.37 27C6.63 27.04 6.87 27.06 7.08 27.06C7.4 27.06 7.67 27.01 7.89 26.93C8.04 26.88 8.19 26.82 8.33 26.77C8.99 26.51 9.56 26.3 9.99 26.4C10.01 26.4 10.03 26.4 10.05 26.41L10.05 27.54C10.05 28.52 9.28 29.32 8.31 29.37L8.1 29.37C7.14 29.32 6.37 28.52 6.37 27.54L6.37 27ZM13.86 37.52L12.42 37.52L12.42 34.42C12.42 34.01 12.09 33.68 11.68 33.68C11.27 33.68 10.93 34.01 10.93 34.42L10.93 37.52L5.48 37.52L5.48 34.42C5.48 34.01 5.15 33.68 4.74 33.68C4.33 33.68 3.99 34.01 3.99 34.42L3.99 37.52L2.49 37.52L2.49 35.48C2.49 34.28 2.83 33.11 3.49 32.1C3.99 31.32 4.85 30.86 5.78 30.86L7.46 30.86L7.46 32.5C7.46 32.91 7.8 33.24 8.21 33.24C8.62 33.24 8.95 32.91 8.95 32.5L8.95 30.86L10.57 30.86C11.5 30.86 12.36 31.32 12.86 32.1C13.52 33.11 13.86 34.28 13.86 35.48L13.86 37.52L13.86 37.52ZM37.77 31.3C37.06 30.2 35.9 29.51 34.62 29.39C34.98 28.86 35.19 28.22 35.19 27.54L35.19 25.6C35.19 25.56 35.19 25.52 35.18 25.49C35.19 25.47 35.19 25.46 35.19 25.44C35.16 23.7 33.71 22.28 31.96 22.28L31.75 22.28C29.97 22.28 28.53 23.72 28.53 25.49L28.53 25.58C28.53 25.58 28.53 25.59 28.53 25.6L28.53 27.54C28.53 28.22 28.73 28.86 29.09 29.38C27.78 29.49 26.6 30.19 25.88 31.3C25.08 32.54 24.65 33.99 24.65 35.48L24.65 38.26C24.65 38.67 24.98 39 25.39 39L38.26 39C38.67 39 39 38.67 39 38.26L39 35.48C39 33.99 38.57 32.54 37.77 31.3ZM31.86 23.76C32.62 23.76 33.28 24.23 33.56 24.89C32.84 24.85 32.16 25.11 31.44 25.38C31.31 25.43 31.17 25.49 31.03 25.54C31 25.55 30.74 25.63 30.02 25.49C30.08 24.53 30.88 23.76 31.86 23.76ZM30.02 27C30.28 27.04 30.52 27.06 30.73 27.06C31.05 27.06 31.32 27.01 31.54 26.93C31.69 26.88 31.84 26.82 31.98 26.77C32.64 26.51 33.21 26.29 33.64 26.4C33.66 26.4 33.68 26.4 33.7 26.41L33.7 27.54C33.7 28.52 32.93 29.32 31.96 29.37L31.75 29.37C30.79 29.32 30.02 28.52 30.02 27.54L30.02 27ZM37.51 37.52L36.07 37.52L36.07 34.42C36.07 34.01 35.74 33.68 35.33 33.68C34.92 33.68 34.58 34.01 34.58 34.42L34.58 37.52L29.13 37.52L29.13 34.42C29.13 34.01 28.8 33.68 28.39 33.68C27.98 33.68 27.64 34.01 27.64 34.42L27.64 37.52L26.14 37.52L26.14 35.48C26.14 34.28 26.48 33.11 27.14 32.1C27.64 31.32 28.5 30.86 29.43 30.86L31.11 30.86L31.11 31.75C31.11 32.16 31.45 32.5 31.86 32.5C32.27 32.5 32.6 32.16 32.6 31.75L32.6 30.86L34.22 30.86C35.15 30.86 36.01 31.32 36.51 32.1C37.17 33.11 37.51 34.28 37.51 35.48L37.51 37.52ZM13.44 17.72L26.3 17.72C26.71 17.72 27.04 17.39 27.04 16.98L27.04 14.69C27.04 14.28 26.71 13.95 26.3 13.95C25.89 13.95 25.55 14.28 25.55 14.69L25.55 16.24L24.12 16.24L24.12 13.14C24.12 12.73 23.78 12.4 23.37 12.4C22.96 12.4 22.63 12.73 22.63 13.14L22.63 16.24L17.17 16.24L17.17 13.14C17.17 12.73 16.84 12.4 16.43 12.4C16.02 12.4 15.68 12.73 15.68 13.14L15.68 16.24L14.18 16.24L14.18 14.2C14.18 13 14.53 11.83 15.18 10.82C15.68 10.04 16.54 9.58 17.47 9.58L19.16 9.58L19.16 13.49C19.16 13.9 19.49 14.24 19.9 14.24C20.31 14.24 20.64 13.9 20.64 13.49L20.64 9.58L22.27 9.58C22.79 9.58 23.29 9.72 23.73 10C24.08 10.22 24.54 10.12 24.76 9.78C24.98 9.43 24.88 8.97 24.54 8.75C23.97 8.39 23.33 8.17 22.66 8.11C23.02 7.58 23.23 6.95 23.23 6.26L23.23 4.32C23.23 4.28 23.23 4.25 23.23 4.21C23.23 4.19 23.23 4.18 23.23 4.16C23.2 2.42 21.76 1 20.01 1L19.79 1C18.02 1 16.57 2.44 16.57 4.21L16.57 4.3C16.57 4.31 16.57 4.31 16.57 4.32L16.57 6.26C16.57 6.94 16.78 7.58 17.13 8.11C15.83 8.21 14.65 8.91 13.93 10.02C13.12 11.27 12.69 12.71 12.69 14.2L12.69 16.98C12.69 17.39 13.03 17.72 13.44 17.72ZM19.9 2.48C20.66 2.48 21.32 2.95 21.6 3.61C20.88 3.57 20.2 3.83 19.49 4.1C19.35 4.15 19.21 4.21 19.07 4.26C19.04 4.27 18.78 4.35 18.06 4.21C18.12 3.25 18.92 2.48 19.9 2.48ZM18.06 5.72C18.32 5.76 18.56 5.78 18.78 5.78C19.09 5.78 19.36 5.74 19.59 5.65C19.74 5.6 19.88 5.54 20.02 5.49C20.68 5.23 21.25 5.02 21.68 5.12C21.7 5.12 21.72 5.12 21.74 5.13L21.74 6.26C21.74 7.24 20.97 8.04 20.01 8.09L19.79 8.09C18.83 8.04 18.06 7.24 18.06 6.26L18.06 5.72ZM19.96 23.23C18.41 23.23 17.15 24.49 17.15 26.03C17.15 27.57 18.41 28.82 19.96 28.82C21.5 28.82 22.76 27.57 22.76 26.03C22.76 24.49 21.5 23.23 19.96 23.23ZM19.96 27.34C19.23 27.34 18.64 26.75 18.64 26.03C18.64 25.31 19.23 24.72 19.96 24.72C20.68 24.72 21.27 25.31 21.27 26.03C21.27 26.75 20.68 27.34 19.96 27.34ZM19.13 19.26L19.13 21.67C19.13 22.08 19.47 22.41 19.88 22.41C20.29 22.41 20.62 22.08 20.62 21.67L20.62 19.26C20.62 18.85 20.29 18.52 19.88 18.52C19.47 18.52 19.13 18.85 19.13 19.26ZM27.49 26.03C27.49 25.62 27.16 25.29 26.75 25.29L24.32 25.29C23.91 25.29 23.58 25.62 23.58 26.03C23.58 26.44 23.91 26.77 24.32 26.77L26.75 26.77C27.16 26.77 27.49 26.44 27.49 26.03ZM15.35 25.29L12.93 25.29C12.52 25.29 12.18 25.62 12.18 26.03C12.18 26.44 12.52 26.77 12.93 26.77L15.35 26.77C15.76 26.77 16.09 26.44 16.09 26.03C16.09 25.62 15.76 25.29 15.35 25.29ZM8.64 34.77L8.62 34.75C8.29 34.5 7.82 34.57 7.57 34.89C7.32 35.22 7.39 35.68 7.71 35.93L7.73 35.95C7.87 36.05 8.03 36.1 8.18 36.1C8.41 36.1 8.63 36 8.78 35.81C9.03 35.48 8.96 35.01 8.64 34.77ZM25.28 12.35L25.3 12.37C25.44 12.47 25.6 12.52 25.75 12.52C25.98 12.52 26.2 12.42 26.35 12.23C26.59 11.9 26.53 11.43 26.2 11.19L26.18 11.17C25.86 10.92 25.39 10.99 25.14 11.31C24.89 11.64 24.95 12.11 25.28 12.35Z" />
	</g>
</svg>