<svg xmlns="http://www.w3.org/2000/svg" viewBox="0 0 40 38" width="40" height="38">
	<style>
		tspan { white-space:pre }
		.shp0 { fill: #ff4c31 } 
	</style>
	<g id="Group 37">
		<path id="Shape 17" class="shp0" d="M39 2.89C39 11.18 39 20.79 39 29.09C38.38 30.63 37.88 30.97 36.2 30.97C32.26 30.97 28.33 30.97 24.4 30.97C24.25 30.97 24.1 30.97 23.92 30.97C24.3 32.5 24.67 33.99 25.03 35.47C25.11 35.48 25.14 35.49 25.18 35.49C25.6 35.49 26.02 35.49 26.44 35.49C27.12 35.49 27.48 35.74 27.49 36.23C27.5 36.73 27.13 37 26.44 37C22.15 37 17.85 37 13.56 37C13.38 37 13.19 37 13.01 36.94C12.68 36.84 12.51 36.58 12.51 36.23C12.52 35.9 12.69 35.65 13.01 35.55C13.16 35.5 13.32 35.5 13.48 35.5C13.97 35.49 14.46 35.49 14.97 35.49C15.34 33.97 15.7 32.49 16.08 30.97C15.9 30.97 15.75 30.97 15.6 30.97C11.55 30.97 7.49 30.97 3.43 30.97C2.74 30.97 2.1 30.82 1.66 30.28C1.37 29.94 1.21 29.49 1 29.09C1 20.79 1 11.18 1 2.89C1.62 1.34 2.13 1 3.8 1C12.22 1 20.65 1 29.07 1.01C29.24 1.01 29.42 1 29.58 1.04C29.92 1.11 30.15 1.4 30.17 1.73C30.18 2.05 29.96 2.37 29.64 2.46C29.5 2.5 29.35 2.51 29.2 2.51C22.19 2.51 15.18 2.51 8.17 2.51C6.57 2.51 4.98 2.51 3.38 2.51C2.81 2.51 2.54 2.76 2.54 3.24C14.19 3.24 25.84 3.24 37.49 3.24C37.39 2.73 37.17 2.52 36.68 2.51C36.01 2.5 35.35 2.52 34.68 2.51C34.15 2.5 33.8 2.19 33.81 1.74C33.82 1.3 34.16 1.01 34.68 1.01C35.37 1 36.06 0.99 36.75 1.01C37.52 1.02 38.15 1.33 38.58 1.98C38.77 2.25 38.86 2.58 39 2.89ZM37.49 26.67C37.49 19.79 37.49 11.63 37.49 4.79C25.82 4.79 14.17 4.79 2.51 4.79C2.51 11.65 2.51 19.8 2.51 26.67C2.68 26.67 2.83 26.67 2.98 26.67C7.16 26.67 11.34 26.67 15.52 26.66C15.89 26.66 16.18 26.76 16.48 26.97C16.67 27.1 16.93 27.19 17.15 27.19C19.05 27.21 20.94 27.21 22.83 27.19C23.07 27.19 23.33 27.09 23.54 26.96C23.83 26.76 24.11 26.66 24.47 26.66C27.03 26.67 29.59 26.67 32.15 26.67C33.92 26.67 35.68 26.67 37.49 26.67ZM37.51 28.17C37.32 28.17 37.18 28.17 37.03 28.17C32.97 28.17 28.92 28.18 24.86 28.17C24.56 28.17 24.33 28.27 24.08 28.42C23.83 28.57 23.51 28.69 23.23 28.7C21.09 28.72 18.95 28.7 16.81 28.71C16.46 28.72 16.17 28.61 15.88 28.42C15.68 28.29 15.41 28.18 15.17 28.18C11.09 28.17 7.01 28.17 2.93 28.17C2.79 28.17 2.65 28.17 2.51 28.17C2.43 29.19 2.67 29.46 3.6 29.46C14.42 29.46 25.24 29.46 36.06 29.46C36.28 29.46 36.51 29.47 36.73 29.46C37.2 29.43 37.48 29.15 37.51 28.67C37.52 28.53 37.51 28.38 37.51 28.17ZM16.51 35.47C18.86 35.47 21.16 35.47 23.5 35.47C23.14 34.02 22.79 32.6 22.43 31.18C22.41 31.09 22.25 30.98 22.15 30.98C20.72 30.97 19.28 30.97 17.85 30.98C17.75 30.98 17.59 31.09 17.57 31.18C17.21 32.6 16.86 34.02 16.51 35.47ZM11.84 36.26C11.83 36.67 11.5 37 11.1 37C10.7 37 10.34 36.64 10.35 36.23C10.36 35.83 10.7 35.5 11.1 35.5C11.51 35.49 11.85 35.84 11.84 36.26ZM31.57 2.51C31.17 2.51 30.84 2.17 30.83 1.77C30.83 1.35 31.17 1 31.59 1.01C31.98 1.02 32.32 1.37 32.32 1.77C32.31 2.16 31.97 2.51 31.57 2.51ZM31.17 18.56C30.97 18.77 30.75 19.01 30.52 19.24C29.37 20.37 27.73 19.93 27.3 18.37C26.91 16.98 26.55 15.58 26.2 14.19C25.92 13.1 26.47 12.1 27.48 11.81C28.47 11.53 29.46 12.12 29.77 13.19C29.88 13.56 29.97 13.93 30.08 14.35C30.84 13.89 31.59 13.84 32.34 14.36C32.49 13.86 32.59 13.39 32.76 12.94C33.03 12.23 33.56 11.83 34.3 11.76C35.06 11.7 35.65 12.01 36.06 12.66C36.35 13.15 36.38 13.68 36.24 14.22C35.87 15.62 35.52 17.01 35.13 18.4C34.7 19.92 33.07 20.36 31.95 19.27C31.71 19.04 31.49 18.81 31.26 18.59C31.25 18.58 31.24 18.58 31.17 18.56ZM34.86 13.59C34.79 13.51 34.73 13.35 34.61 13.3C34.34 13.19 34.17 13.34 34.09 13.62C33.89 14.38 33.7 15.14 33.49 15.9C33.29 16.6 32.67 16.77 32.15 16.27C31.95 16.08 31.76 15.88 31.57 15.69C31.34 15.45 31.11 15.43 30.87 15.69C30.71 15.86 30.54 16.03 30.37 16.2C29.76 16.81 29.15 16.64 28.92 15.8C28.74 15.1 28.56 14.39 28.37 13.69C28.3 13.43 28.19 13.2 27.87 13.29C27.56 13.38 27.59 13.63 27.65 13.88C28.01 15.24 28.37 16.61 28.74 17.98C28.86 18.42 29.15 18.49 29.48 18.17C29.86 17.79 30.22 17.4 30.61 17.03C31.02 16.61 31.42 16.61 31.84 17.02C32.18 17.36 32.52 17.72 32.86 18.06C33.32 18.53 33.58 18.47 33.74 17.83C34.07 16.6 34.4 15.36 34.72 14.13C34.77 13.97 34.81 13.81 34.86 13.59ZM7.65 14.35C8.4 13.88 9.13 13.85 9.91 14.37C10.02 13.96 10.11 13.58 10.22 13.2C10.45 12.43 10.93 11.91 11.74 11.78C12.52 11.66 13.15 11.94 13.59 12.62C13.9 13.1 13.95 13.63 13.81 14.17C13.44 15.57 13.09 16.96 12.71 18.35C12.27 19.94 10.62 20.38 9.46 19.22C9.24 19 9.03 18.78 8.77 18.52C8.53 18.77 8.32 19.01 8.09 19.23C6.92 20.38 5.29 19.94 4.85 18.34C4.48 16.98 4.13 15.61 3.76 14.24C3.55 13.42 3.72 12.71 4.37 12.17C4.97 11.67 5.66 11.62 6.35 11.95C6.85 12.19 7.16 12.6 7.31 13.14C7.43 13.53 7.53 13.93 7.65 14.35ZM5.14 13.56C5.17 13.7 5.18 13.75 5.19 13.79C5.56 15.2 5.92 16.61 6.3 18.01C6.41 18.4 6.7 18.48 7 18.2C7.4 17.81 7.78 17.4 8.18 17C8.58 16.61 8.98 16.62 9.38 17.01C9.74 17.36 10.08 17.72 10.43 18.08C10.87 18.53 11.14 18.46 11.3 17.86C11.63 16.63 11.95 15.41 12.27 14.19C12.31 14.03 12.39 13.86 12.36 13.71C12.34 13.56 12.22 13.33 12.11 13.31C11.99 13.28 11.81 13.44 11.68 13.55C11.63 13.59 11.63 13.71 11.61 13.79C11.42 14.51 11.24 15.22 11.03 15.93C10.84 16.6 10.22 16.76 9.71 16.28C9.52 16.1 9.35 15.91 9.16 15.72C8.85 15.42 8.7 15.42 8.38 15.73C8.17 15.94 7.97 16.17 7.75 16.36C7.33 16.72 6.77 16.57 6.57 16.06C6.5 15.9 6.46 15.72 6.42 15.55C6.24 14.9 6.07 14.25 5.9 13.59C5.84 13.37 5.7 13.22 5.47 13.29C5.33 13.33 5.23 13.49 5.14 13.56ZM20.01 18.51C19.73 18.8 19.5 19.06 19.25 19.3C18.15 20.32 16.57 19.95 16.13 18.5C15.68 17.01 15.3 15.49 14.95 13.96C14.72 13.01 15.33 12.08 16.25 11.81C17.15 11.56 18.12 12.04 18.46 12.94C18.62 13.38 18.73 13.85 18.88 14.34C19.62 13.88 20.36 13.85 21.12 14.35C21.27 13.86 21.37 13.38 21.55 12.94C21.81 12.23 22.35 11.83 23.09 11.77C23.85 11.7 24.44 12.01 24.84 12.67C25.13 13.16 25.17 13.68 25.02 14.23C24.65 15.61 24.3 16.99 23.92 18.37C23.49 19.93 21.85 20.37 20.7 19.24C20.47 19.02 20.26 18.77 20.01 18.51ZM16.36 13.59C16.39 13.72 16.41 13.77 16.42 13.82C16.79 15.21 17.15 16.61 17.52 18C17.63 18.41 17.93 18.48 18.24 18.18C18.62 17.81 18.99 17.42 19.37 17.04C19.81 16.61 20.19 16.61 20.63 17.04C21 17.41 21.36 17.79 21.73 18.16C22.07 18.49 22.36 18.42 22.49 17.96C22.62 17.51 22.73 17.04 22.85 16.58C23.1 15.66 23.35 14.74 23.57 13.82C23.61 13.67 23.55 13.46 23.46 13.35C23.4 13.28 23.16 13.27 23.06 13.33C22.95 13.41 22.88 13.59 22.84 13.74C22.63 14.48 22.46 15.22 22.24 15.96C22.06 16.59 21.45 16.75 20.97 16.31C20.75 16.11 20.55 15.89 20.34 15.68C20.11 15.45 19.89 15.44 19.66 15.67C19.44 15.91 19.22 16.15 18.97 16.36C18.54 16.73 17.97 16.57 17.78 16.03C17.68 15.76 17.62 15.47 17.55 15.2C17.4 14.65 17.26 14.1 17.11 13.56C17.05 13.34 16.88 13.2 16.66 13.29C16.53 13.34 16.44 13.51 16.36 13.59Z" />
	</g>
</svg>