<svg xmlns="http://www.w3.org/2000/svg" viewBox="0 0 39 39" width="39" height="39">
	<style>
		tspan { white-space:pre }
		.shp0 { fill: #ff4c31 } 
	</style>
	<g id="Group 37">
		<path id="Shape 14" class="shp0" d="M14.49 28.22C14.43 28.21 14.38 28.2 14.32 28.2C15.14 27.34 15.64 26.19 15.64 24.92L15.64 21.01C15.64 20.98 15.63 20.94 15.63 20.91C15.63 20.84 15.64 20.77 15.64 20.7L15.64 18.23C15.64 17.82 15.3 17.48 14.89 17.48L9.92 17.48C7.82 17.48 6.11 19.19 6.11 21.29L6.11 24.92C6.11 26.19 6.62 27.34 7.43 28.2C7.37 28.2 7.32 28.21 7.26 28.22C3.76 28.54 1 31.5 1 35.09L1 38.26C1 38.67 1.33 39 1.74 39L20.01 39C20.42 39 20.75 38.67 20.75 38.26L20.75 35.09C20.75 31.5 17.99 28.54 14.49 28.22ZM7.6 22.23L7.6 21.29C7.6 20.01 8.64 18.97 9.92 18.97L14.15 18.97L14.15 20.7C14.15 21.57 13.44 22.27 12.57 22.27L7.6 22.27L7.6 22.23ZM7.6 23.76L12.57 23.76C13.15 23.76 13.69 23.6 14.15 23.32L14.15 24.92C14.15 26.73 12.68 28.2 10.88 28.2C9.07 28.2 7.6 26.73 7.6 24.92L7.6 23.76ZM12.49 29.68L10.88 31.3L9.26 29.68L12.49 29.68ZM19.27 37.52L19.27 37.52L2.48 37.52L2.48 36.03L5.56 36.03C5.97 36.03 6.31 35.7 6.31 35.29C6.31 34.88 5.97 34.55 5.56 34.55L2.51 34.55C2.76 32.04 4.72 30.04 7.21 29.72L10.35 32.87C10.49 33.01 10.68 33.09 10.88 33.09C11.07 33.09 11.26 33.01 11.4 32.87L14.55 29.72C17.2 30.06 19.27 32.34 19.27 35.09L19.27 37.52ZM32.74 11.74C32.68 11.73 32.63 11.72 32.57 11.71C33.38 10.86 33.89 9.71 33.89 8.44L33.89 4.53C33.89 4.49 33.88 4.46 33.88 4.43C33.88 4.36 33.89 4.28 33.89 4.21L33.89 1.74C33.89 1.33 33.55 1 33.14 1L28.16 1C26.07 1 24.36 2.71 24.36 4.8L24.36 8.43C24.36 9.7 24.86 10.86 25.68 11.71C25.62 11.72 25.57 11.73 25.51 11.74C22.01 12.06 19.25 15.01 19.25 18.6L19.25 21.77C19.25 22.18 19.58 22.52 19.99 22.52L25.96 22.52C26.37 22.52 26.7 22.18 26.7 21.77C26.7 21.36 26.37 21.03 25.96 21.03L20.73 21.03L20.73 18.6C20.73 15.85 22.8 13.58 25.45 13.24L28.6 16.39C28.74 16.53 28.93 16.6 29.12 16.6C29.31 16.6 29.5 16.53 29.65 16.39L32.79 13.24C35.45 13.58 37.52 15.85 37.52 18.6L37.52 21.03L32.05 21.03C31.64 21.03 31.31 21.36 31.31 21.77C31.31 22.18 31.64 22.52 32.05 22.52L38.26 22.52C38.67 22.52 39 22.18 39 21.77L39 18.6C39 15.01 36.24 12.06 32.74 11.74ZM29.12 14.81L27.51 13.2L30.74 13.2L29.12 14.81ZM32.4 8.43C32.4 10.24 30.93 11.71 29.12 11.71C27.32 11.71 25.85 10.24 25.85 8.44L25.85 7.27L30.82 7.27C31.4 7.27 31.94 7.11 32.4 6.84L32.4 8.43ZM32.4 4.21C32.4 5.08 31.69 5.79 30.82 5.79L25.85 5.79L25.85 5.74L25.85 4.8C25.85 3.52 26.89 2.48 28.16 2.48L32.4 2.48L32.4 4.21L32.4 4.21ZM29.65 21.25C29.51 21.11 29.32 21.03 29.12 21.03C28.93 21.03 28.74 21.11 28.6 21.25C28.46 21.39 28.38 21.58 28.38 21.77C28.38 21.97 28.46 22.16 28.6 22.3C28.74 22.44 28.93 22.52 29.12 22.52C29.32 22.52 29.51 22.44 29.65 22.3C29.79 22.16 29.87 21.97 29.87 21.77C29.87 21.58 29.79 21.39 29.65 21.25ZM20.85 11.39L17.74 8.28L17.74 4.71C17.74 2.66 16.08 1 14.03 1L4.71 1C2.66 1 1 2.66 1 4.71L1 11.24C1 13.29 2.66 14.95 4.71 14.95L14.03 14.95C15.57 14.95 16.9 14.03 17.47 12.65L20.32 12.65C20.62 12.65 20.89 12.47 21.01 12.19C21.12 11.92 21.06 11.6 20.85 11.39ZM16.92 11.17C16.58 11.17 16.28 11.41 16.2 11.74C15.97 12.76 15.08 13.47 14.03 13.47L4.71 13.47C3.48 13.47 2.48 12.47 2.48 11.24L2.48 4.71C2.48 3.48 3.48 2.48 4.71 2.48L14.03 2.48C15.26 2.48 16.26 3.48 16.26 4.71L16.26 8.59C16.26 8.79 16.34 8.97 16.48 9.11L18.53 11.17L16.92 11.17ZM35.29 25.05L25.97 25.05C24.43 25.05 23.1 25.97 22.53 27.35L19.68 27.35C19.38 27.35 19.11 27.53 18.99 27.81C18.88 28.08 18.94 28.4 19.15 28.61L22.26 31.72L22.26 35.29C22.26 37.33 23.92 39 25.97 39L35.29 39C37.34 39 39 37.33 39 35.29L39 28.76C39 26.71 37.34 25.05 35.29 25.05ZM37.52 35.29C37.52 36.52 36.52 37.52 35.29 37.52L25.97 37.52C24.74 37.52 23.74 36.52 23.74 35.29L23.74 31.41C23.74 31.21 23.66 31.03 23.52 30.89L21.47 28.83L23.08 28.83C23.42 28.83 23.72 28.59 23.8 28.26C24.03 27.24 24.92 26.53 25.97 26.53L35.29 26.53C36.52 26.53 37.52 27.53 37.52 28.76L37.52 35.29ZM33.96 30.05C33.67 29.76 33.2 29.76 32.92 30.05L30.94 32.02L30.02 31.1C29.73 30.81 29.26 30.81 28.98 31.1C28.69 31.39 28.69 31.86 28.98 32.15L30.42 33.6C30.56 33.74 30.75 33.81 30.94 33.81C31.13 33.81 31.32 33.74 31.47 33.6L33.96 31.1C34.25 30.81 34.25 30.34 33.96 30.05ZM12.75 5.92C12.66 4.65 11.63 3.62 10.36 3.53C9.64 3.48 8.95 3.73 8.42 4.22C7.9 4.7 7.6 5.39 7.6 6.1C7.61 6.51 7.94 6.84 8.35 6.84C8.76 6.84 9.09 6.51 9.09 6.1C9.09 5.79 9.21 5.51 9.44 5.3C9.66 5.09 9.95 4.99 10.26 5.01C10.79 5.05 11.23 5.48 11.26 6.02C11.3 6.56 10.95 7.04 10.42 7.16C9.84 7.29 9.44 7.79 9.44 8.38L9.44 8.78C9.44 9.19 9.77 9.52 10.18 9.52C10.59 9.52 10.92 9.19 10.92 8.78L10.92 8.56C12.07 8.22 12.83 7.14 12.75 5.92ZM10.7 11.1C10.57 10.96 10.37 10.88 10.18 10.88C9.98 10.88 9.79 10.96 9.65 11.1C9.52 11.23 9.44 11.42 9.44 11.62C9.44 11.81 9.52 12.01 9.65 12.14C9.79 12.28 9.98 12.36 10.18 12.36C10.37 12.36 10.57 12.28 10.7 12.14C10.84 12.01 10.92 11.81 10.92 11.62C10.92 11.42 10.84 11.23 10.7 11.1ZM9.06 34.76C8.92 34.63 8.73 34.55 8.53 34.55C8.34 34.55 8.15 34.63 8.01 34.76C7.87 34.9 7.79 35.09 7.79 35.29C7.79 35.48 7.87 35.68 8.01 35.81C8.15 35.95 8.34 36.03 8.53 36.03C8.73 36.03 8.92 35.95 9.06 35.81C9.2 35.68 9.28 35.48 9.28 35.29C9.28 35.09 9.2 34.9 9.06 34.76Z" />
	</g>
</svg>