<svg xmlns="http://www.w3.org/2000/svg" viewBox="0 0 39 39" width="39" height="39">
	<style>
		tspan { white-space:pre }
		.shp0 { fill: #ff4c31 } 
	</style>
	<g id="Group 37">
		<path id="Shape 11" class="shp0" d="M28.76 9.01L12.5 9.01L23.64 2.58C23.99 2.38 24.45 2.5 24.65 2.85L27.16 7.21C27.37 7.56 27.82 7.69 28.18 7.48C28.53 7.28 28.65 6.82 28.45 6.47L25.94 2.11C25.32 1.05 23.96 0.68 22.89 1.3L9.54 9.01C9.54 9.01 9.53 9.01 9.53 9.01L3.23 9.01C2 9.01 1 10.01 1 11.24L1 36.77C1 38 2 39 3.23 39L28.76 39C29.99 39 30.98 38 30.98 36.77L30.98 11.24C30.98 10.01 29.99 9.01 28.76 9.01ZM29.5 36.77C29.5 37.18 29.17 37.52 28.76 37.52L3.23 37.52C2.82 37.52 2.48 37.18 2.48 36.77L2.48 11.24C2.48 10.83 2.82 10.5 3.23 10.5L28.76 10.5C29.17 10.5 29.5 10.83 29.5 11.24L29.5 36.77L29.5 36.77ZM34.2 16.47C34.06 16.34 33.87 16.26 33.67 16.26C33.48 16.26 33.29 16.34 33.15 16.47C33.01 16.61 32.93 16.8 32.93 17C32.93 17.19 33.01 17.39 33.15 17.52C33.29 17.66 33.48 17.74 33.67 17.74C33.87 17.74 34.06 17.66 34.2 17.52C34.34 17.39 34.42 17.19 34.42 17C34.42 16.8 34.34 16.61 34.2 16.47ZM38.7 24.22L35.63 18.9C35.43 18.55 34.97 18.43 34.62 18.63C34.26 18.84 34.14 19.29 34.35 19.65L37.42 24.97C37.62 25.32 37.5 25.78 37.15 25.98L32.37 28.74C32.02 28.94 31.9 29.39 32.1 29.75C32.24 29.99 32.49 30.12 32.74 30.12C32.87 30.12 33 30.09 33.11 30.02L37.89 27.27C38.95 26.65 39.32 25.29 38.7 24.22ZM20.53 12.79C20.39 12.66 20.2 12.58 20 12.58C19.81 12.58 19.61 12.66 19.48 12.79C19.34 12.93 19.26 13.12 19.26 13.32C19.26 13.51 19.34 13.71 19.48 13.84C19.61 13.98 19.81 14.06 20 14.06C20.2 14.06 20.39 13.98 20.53 13.84C20.66 13.71 20.74 13.51 20.74 13.32C20.74 13.12 20.66 12.93 20.53 12.79ZM26.68 12.58L23.79 12.58C23.38 12.58 23.04 12.91 23.04 13.32C23.04 13.73 23.38 14.06 23.79 14.06L25.94 14.06L25.94 24.64L20.05 18.75C19.91 18.61 19.72 18.53 19.52 18.53C19.32 18.53 19.14 18.61 19 18.75L15.06 22.68C14.77 22.97 14.77 23.44 15.06 23.73C15.35 24.02 15.82 24.02 16.11 23.73L19.52 20.33L25.93 26.74C25.93 26.74 25.94 26.74 25.94 26.74L25.94 30.39L7.1 30.39L12.48 25L16.49 29C16.78 29.29 17.25 29.29 17.54 29C17.83 28.71 17.83 28.25 17.54 27.96L13.01 23.43C12.87 23.29 12.68 23.21 12.48 23.21C12.29 23.21 12.1 23.29 11.96 23.43L6.05 29.34L6.05 14.06L15.99 14.06C16.4 14.06 16.73 13.73 16.73 13.32C16.73 12.91 16.4 12.58 15.99 12.58L5.3 12.58C4.89 12.58 4.56 12.91 4.56 13.32L4.56 31.13C4.56 31.54 4.89 31.87 5.3 31.87L26.68 31.87C27.09 31.87 27.42 31.54 27.42 31.13L27.42 13.32C27.42 12.91 27.09 12.58 26.68 12.58ZM11.81 15.77C10.5 15.77 9.44 16.83 9.44 18.14C9.44 19.45 10.5 20.52 11.81 20.52C13.12 20.52 14.19 19.45 14.19 18.14C14.19 16.83 13.12 15.77 11.81 15.77ZM11.81 19.03C11.32 19.03 10.92 18.64 10.92 18.14C10.92 17.65 11.32 17.25 11.81 17.25C12.3 17.25 12.7 17.65 12.7 18.14C12.7 18.64 12.3 19.03 11.81 19.03Z" />
	</g>
</svg>